<svg width="308" height="57" viewBox="0 0 308 57" fill="none" xmlns="http://www.w3.org/2000/svg">
<g clip-path="url(#clip0_123_6375)">
<path d="M62.4719 8.19477C64.2928 9.99521 66.0918 11.7741 67.9695 13.6306C62.4894 18.5377 56.8623 24.9137 51.4677 30.3268C57.8601 28.7822 67.9482 25.172 74.5867 23.3463C75.2678 25.7987 75.9403 28.2122 76.6259 30.6733C68.9458 32.7307 61.0484 35.5247 53.4721 37.943C56.2398 38.8175 73.6037 44.3288 76.358 45.1792C75.834 47.243 75.2925 49.2982 74.7554 51.3576C74.7379 51.4182 74.6856 51.4743 74.6288 51.5607C66.8108 49.5658 59.0327 47.4121 51.2057 45.4555C42.1312 43.1834 32.6683 43.5784 23.6517 45.9607C16.2526 47.9197 9.2458 49.546 1.86463 51.5708C1.17469 49.1097 0.681209 46.9411 0 44.5147C0.827463 44.2416 1.48624 43.992 22.5033 38.0553C14.8004 36.0432 7.68979 34.0291 0 32.0214C0.741137 29.5648 1.46743 27.3308 2.09187 24.8827C5.95983 25.8799 24.3504 30.4541 24.3809 30.2879C18.5336 25.1559 13.179 19.3755 7.67904 13.8755C9.39953 12.2089 11.4336 10.1765 13.1672 8.46247C18.5438 13.4747 25.2932 19.8323 30.1057 24.6448C28.0111 17.2833 25.923 8.80538 24.0359 2.01631C26.5337 1.33846 28.9922 0.669226 31.4594 0C33.5642 7.59464 35.6689 15.172 37.8086 22.8832C39.6668 16.3948 42.0753 7.35247 44.0836 0.362677C45.7298 0.714493 48.9612 1.65531 51.5245 2.31423C49.748 8.98709 47.6157 17.5446 45.743 24.6837C51.0813 18.9966 56.8047 13.5473 62.4894 8.20773L62.4719 8.19477Z" fill="black"/>
<path d="M48.9001 56.1562C46.6817 56.2512 44.9045 54.3645 44.922 52.1884C44.9395 50.0641 46.6294 48.2982 48.9001 48.2852C51.1053 48.2723 52.9655 50.0382 52.9087 52.374C52.8563 54.399 51.0791 56.2814 48.9001 56.1562Z" fill="black"/>
<path d="M32.3537 52.2394C32.4759 54.286 30.6507 56.2893 28.1791 56.1728C26.2097 56.0777 24.3713 54.4069 24.3888 52.2309C24.4063 50.003 26.1268 48.3105 28.3713 48.2759C30.5502 48.2414 32.4759 50.0634 32.3493 52.2394H32.3537Z" fill="black"/>
</g>
<path d="M89.8242 14.9844H95.9615V25.2456H107.462V14.9844H113.618V41.3149H107.462V30.6859H95.9615V41.3149H89.8242V14.9844Z" fill="black"/>
<path d="M119.02 14.9844H137.587V20.4248H125.157V25.4004H135.825V30.5116H125.157V35.8552H137.761V41.3149H119.02V14.9844Z" fill="black"/>
<path d="M152.262 14.9844C155.05 14.9844 157.509 15.533 159.639 16.6301C161.781 17.7272 163.44 19.2696 164.614 21.2573C165.789 23.245 166.376 25.536 166.376 28.1303C166.376 30.7375 165.789 33.0414 164.614 35.042C163.453 37.0297 161.807 38.5721 159.677 39.6692C157.561 40.7663 155.108 41.3149 152.32 41.3149H141.594V14.9844H152.262ZM152.107 35.8745C153.798 35.8745 155.25 35.5712 156.463 34.9646C157.677 34.345 158.6 33.4609 159.232 32.3122C159.877 31.1635 160.2 29.7953 160.2 28.2077C160.2 26.6331 159.89 25.2649 159.271 24.1033C158.651 22.9287 157.728 22.0252 156.502 21.3928C155.289 20.7474 153.817 20.4248 152.088 20.4248H147.654V35.8745H152.107Z" fill="black"/>
<path d="M182.387 41.915C179.87 41.915 177.541 41.2955 175.398 40.0564C173.256 38.8173 171.552 37.1459 170.287 35.042C169.035 32.9253 168.409 30.6149 168.409 28.1109C168.409 25.594 169.041 23.2837 170.306 21.1798C171.571 19.076 173.281 17.411 175.437 16.1848C177.605 14.9457 179.967 14.3262 182.523 14.3262C184.42 14.3262 186.311 14.7134 188.195 15.4878C190.08 16.2622 191.7 17.3916 193.055 18.8759C194.41 20.3473 195.262 22.0704 195.611 24.0452H189.376C188.731 22.7416 187.802 21.7348 186.589 21.0249C185.375 20.3021 183.962 19.9408 182.349 19.9408C180.916 19.9408 179.606 20.2763 178.418 20.9475C177.231 21.6058 176.289 22.5544 175.592 23.7935C174.895 25.0326 174.546 26.4782 174.546 28.1303C174.546 29.8211 174.895 31.2861 175.592 32.5251C176.289 33.7513 177.224 34.6871 178.399 35.3324C179.586 35.9778 180.903 36.3005 182.349 36.3005C184.117 36.3005 185.601 35.9003 186.802 35.1001C188.002 34.2999 188.789 33.1834 189.164 31.7507H182.116V26.8525H195.978C196.004 29.9244 195.482 32.5961 194.41 34.8678C193.352 37.1265 191.797 38.869 189.744 40.0951C187.692 41.3084 185.24 41.915 182.387 41.915Z" fill="black"/>
<path d="M199.676 14.9844H218.243V20.4248H205.814V25.4004H216.481V30.5116H205.814V35.8552H218.417V41.3149H199.676V14.9844Z" fill="black"/>
<path d="M222.251 14.9844H228.388V25.2456H239.888V14.9844H246.045V41.3149H239.888V30.6859H228.388V41.3149H222.251V14.9844Z" fill="black"/>
<path d="M264.089 41.915C261.495 41.915 259.101 41.302 256.906 40.0758C254.712 38.8367 252.97 37.1588 251.679 35.042C250.401 32.9253 249.762 30.6149 249.762 28.1109C249.762 25.594 250.401 23.2837 251.679 21.1798C252.97 19.076 254.712 17.411 256.906 16.1848C259.101 14.9457 261.495 14.3262 264.089 14.3262C266.671 14.3262 269.058 14.9457 271.253 16.1848C273.447 17.411 275.183 19.076 276.461 21.1798C277.751 23.2837 278.397 25.594 278.397 28.1109C278.397 30.6149 277.751 32.9253 276.461 35.042C275.183 37.1588 273.447 38.8367 271.253 40.0758C269.058 41.302 266.671 41.915 264.089 41.915ZM264.089 36.3005C265.599 36.3005 266.974 35.952 268.213 35.255C269.465 34.5451 270.452 33.5706 271.175 32.3315C271.911 31.0796 272.279 29.6791 272.279 28.1303C272.279 26.5685 271.911 25.1681 271.175 23.929C270.452 22.6771 269.465 21.7026 268.213 21.0056C266.974 20.2957 265.599 19.9408 264.089 19.9408C262.579 19.9408 261.198 20.2957 259.946 21.0056C258.694 21.7026 257.707 22.6771 256.984 23.929C256.261 25.1681 255.9 26.5685 255.9 28.1303C255.9 29.6791 256.261 31.0796 256.984 32.3315C257.719 33.5706 258.713 34.5451 259.965 35.255C261.217 35.952 262.592 36.3005 264.089 36.3005Z" fill="black"/>
<path d="M294.408 41.915C291.891 41.915 289.561 41.2955 287.419 40.0564C285.276 38.8173 283.572 37.1459 282.307 35.042C281.055 32.9253 280.429 30.6149 280.429 28.1109C280.429 25.594 281.062 23.2837 282.327 21.1798C283.592 19.076 285.302 17.411 287.457 16.1848C289.626 14.9457 291.988 14.3262 294.543 14.3262C296.441 14.3262 298.332 14.7134 300.216 15.4878C302.1 16.2622 303.72 17.3916 305.076 18.8759C306.431 20.3473 307.283 22.0704 307.631 24.0452H301.397C300.752 22.7416 299.822 21.7348 298.609 21.0249C297.396 20.3021 295.982 19.9408 294.369 19.9408C292.936 19.9408 291.626 20.2763 290.439 20.9475C289.251 21.6058 288.309 22.5544 287.612 23.7935C286.915 25.0326 286.567 26.4782 286.567 28.1303C286.567 29.8211 286.915 31.2861 287.612 32.5251C288.309 33.7513 289.245 34.6871 290.42 35.3324C291.607 35.9778 292.923 36.3005 294.369 36.3005C296.137 36.3005 297.622 35.9003 298.822 35.1001C300.022 34.2999 300.81 33.1834 301.184 31.7507H294.137V26.8525H307.999C308.025 29.9244 307.502 32.5961 306.431 34.8678C305.372 37.1265 303.817 38.869 301.765 40.0951C299.713 41.3084 297.26 41.915 294.408 41.915Z" fill="black"/>
<defs>
<clipPath id="clip0_123_6375">
<rect width="76.7287" height="56.2398" fill="white"/>
</clipPath>
</defs>
</svg>
