<svg width="315" height="89" viewBox="0 0 315 89" fill="none" xmlns="http://www.w3.org/2000/svg">
<path d="M161.744 0.515625H202.609C215.045 0.515625 224.703 1.34108 231.564 6.27234C238.5 11.1393 241.963 18.0002 241.963 26.8657C241.963 31.4432 240.859 35.5169 238.64 39.0867C236.421 42.5922 233.205 45.4116 228.992 47.5556L244.225 77.5398H210.553L192.64 49.4316V77.5398H161.755V0.515625H161.744ZM201.634 36.3102C204.346 36.3102 206.458 35.6348 207.959 34.2733C209.535 32.8476 210.317 30.9179 210.317 28.4845C210.317 26.051 209.535 24.057 207.959 22.6956C206.458 21.2698 204.346 20.5516 201.634 20.5516H192.629V36.3209H201.634V36.3102Z" fill="black"/>
<path d="M0 0.236328H39.4287C40.49 8.43723 47.3187 53.3224 50.5133 68.3521C50.8349 64.7287 49.988 8.37291 49.6557 0.236328H77.8925V77.8394H40.0611C38.6032 69.1882 28.6549 15.8234 27.5936 10.7099C27.4971 14.9551 28.2368 69.2847 28.2368 77.8394H0" fill="black"/>
<path d="M273.288 0.515625L231.576 77.5505H264.047L273.288 65.1795L282.926 77.5505H315L273.288 0.515625Z" fill="black"/>
<path d="M150.275 7.04313C155.475 11.5885 158.24 18.5673 158.24 26.0178V53.2791C158.24 66.9687 147.145 78.064 133.455 78.064H106.194C102.753 78.064 99.4834 77.3672 96.5032 76.0915L95.0452 78.064H81.4199L87.6162 69.6702C83.7569 65.2964 81.4199 59.5611 81.4199 53.2791V26.0178C81.4199 12.3282 92.5153 1.23282 106.205 1.23282H133.466C135.417 1.23282 137.84 1.15777 139.662 1.58658L140.724 0H154.349L150.275 7.04313ZM114.438 54.5226C115.799 55.466 117.375 55.8841 119.058 55.8841C125.351 55.8841 129.553 50.1059 129.553 39.0856C129.553 37.617 129.446 36.2555 129.339 34.9905L114.438 54.5119V54.5226ZM119.058 22.3086C112.862 22.3086 108.671 28.0868 108.671 39.1071C108.671 40.9938 108.778 42.7841 109.089 44.3599L124.515 24.0989C122.939 22.9411 121.159 22.3193 119.058 22.3193V22.3086Z" fill="black"/>
<path d="M265.818 86.2539H265.401L263.18 80.5364H263.588L265.606 85.7965L267.566 80.5364H267.974L265.818 86.2539ZM270.124 86.3029C268.948 86.3029 268.098 85.4044 268.098 84.1057C268.098 82.6274 269.054 81.8596 270.042 81.8596C271.137 81.8596 271.896 82.6274 271.921 83.9342V83.9996H268.458C268.458 85.2656 269.111 85.968 270.124 85.968C270.949 85.968 271.398 85.4616 271.553 84.898H271.905C271.709 85.7883 270.998 86.3029 270.124 86.3029ZM268.49 83.6892H271.545C271.455 82.8969 270.957 82.1945 270.042 82.1945C269.201 82.1945 268.621 82.7662 268.49 83.6892ZM274.75 87.9528C273.648 87.9528 272.953 87.3892 272.953 86.5153H273.313C273.321 87.185 273.876 87.6179 274.75 87.6179C275.682 87.6179 276.278 87.1279 276.278 86.2131V85.1512C276.008 85.7638 275.428 86.1477 274.661 86.1477C273.509 86.1477 272.725 85.2738 272.725 84.0241C272.725 82.7499 273.509 81.8677 274.636 81.8677C275.412 81.8677 276.033 82.2843 276.302 82.9214L276.359 81.9249H276.637V86.2131C276.637 87.2749 275.935 87.9528 274.75 87.9528ZM274.677 85.821C275.649 85.821 276.278 85.0859 276.278 84.0241C276.278 82.9459 275.624 82.1945 274.677 82.1945C273.746 82.1945 273.1 82.9459 273.1 84.0241C273.1 85.0859 273.746 85.821 274.677 85.821ZM279.125 86.2947C278.21 86.2947 277.663 85.8128 277.655 85.0614C277.647 84.0812 278.562 83.9179 279.24 83.828C280.13 83.7137 280.808 83.7219 280.808 83.3461C280.808 82.6682 280.293 82.1863 279.468 82.1863C278.766 82.1863 278.194 82.5783 278.104 83.2236H277.745C277.826 82.415 278.545 81.8596 279.476 81.8596C280.538 81.8596 281.159 82.4803 281.159 83.4033V85.6985C281.159 85.8537 281.241 85.9354 281.38 85.9354H281.649V86.2539H281.347C281.004 86.2539 280.824 86.0742 280.824 85.7393V85.2084C280.555 85.919 279.966 86.2947 279.125 86.2947ZM279.166 85.968C280.212 85.968 280.808 85.3473 280.808 84.1874V83.7872C280.653 84.0077 280.04 84.0567 279.427 84.1139C278.725 84.1793 278.014 84.3099 278.014 85.0451C278.014 85.6086 278.439 85.968 279.166 85.968ZM282.82 86.2539H282.46V81.9249H282.738L282.787 82.8397C283.065 82.2516 283.677 81.8596 284.404 81.8596C285.385 81.8596 285.907 82.464 285.907 83.4278V86.2539H285.548V83.4523C285.548 82.6764 285.148 82.1945 284.364 82.1945C283.473 82.1945 282.828 82.8234 282.82 83.7382V86.2539ZM291.66 86.2539H289.013V80.5364H291.57C292.468 80.5364 293.113 81.1163 293.113 81.9249C293.113 82.5702 292.681 83.0929 292.035 83.2726C292.762 83.4196 293.244 83.9751 293.244 84.6857C293.244 85.6086 292.591 86.2539 291.66 86.2539ZM289.373 80.8631V83.1338H291.537C292.329 83.1338 292.738 82.5375 292.738 81.9576C292.738 81.4022 292.362 80.8631 291.594 80.8631H289.373ZM289.373 83.4441V85.9272H291.676C292.46 85.9272 292.852 85.3309 292.852 84.7265C292.852 84.0894 292.427 83.4441 291.578 83.4441H289.373ZM295.636 86.2947C294.722 86.2947 294.174 85.8128 294.166 85.0614C294.158 84.0812 295.073 83.9179 295.751 83.828C296.641 83.7137 297.319 83.7219 297.319 83.3461C297.319 82.6682 296.804 82.1863 295.98 82.1863C295.277 82.1863 294.705 82.5783 294.615 83.2236H294.256C294.338 82.415 295.057 81.8596 295.988 81.8596C297.05 81.8596 297.67 82.4803 297.67 83.4033V85.6985C297.67 85.8537 297.752 85.9354 297.891 85.9354H298.16V86.2539H297.858C297.515 86.2539 297.335 86.0742 297.335 85.7393V85.2084C297.066 85.919 296.478 86.2947 295.636 86.2947ZM295.677 85.968C296.723 85.968 297.319 85.3473 297.319 84.1874V83.7872C297.164 84.0077 296.551 84.0567 295.939 84.1139C295.236 84.1793 294.526 84.3099 294.526 85.0451C294.526 85.6086 294.95 85.968 295.677 85.968ZM299.396 86.2539H299.037V80.128H299.396V84.5386L301.945 81.9249H302.427L300.85 83.5177L302.639 86.2539H302.206L300.605 83.7627L299.396 84.9879V86.2539ZM304.957 86.3029C303.781 86.3029 302.932 85.4044 302.932 84.1057C302.932 82.6274 303.887 81.8596 304.876 81.8596C305.97 81.8596 306.73 82.6274 306.754 83.9342V83.9996H303.291C303.291 85.2656 303.944 85.968 304.957 85.968C305.782 85.968 306.231 85.4616 306.387 84.898H306.738C306.542 85.7883 305.831 86.3029 304.957 86.3029ZM303.324 83.6892H306.378C306.289 82.8969 305.79 82.1945 304.876 82.1945C304.034 82.1945 303.454 82.7662 303.324 83.6892ZM308.105 86.2539H307.746V81.9249H308.024L308.081 82.9622C308.309 82.268 308.832 81.9086 309.616 81.9086H309.69V82.3006H309.616C308.685 82.3006 308.105 82.9132 308.105 83.9015V86.2539ZM311.083 87.8875H310.348V87.5689H311.083C311.45 87.5689 311.671 87.3566 311.818 86.9645L312.079 86.2539H311.924L310.209 81.9249H310.593L312.186 85.968L313.689 81.9249H314.072L312.112 87.1932C311.949 87.6425 311.63 87.8875 311.083 87.8875Z" fill="black"/>
</svg>
