<svg width="176" height="73" viewBox="0 0 176 73" fill="none" xmlns="http://www.w3.org/2000/svg">
<path d="M161.647 0H13.3757C5.99342 0 0 5.96744 0 13.3177V58.9519C0 66.2897 5.99342 72.2571 13.3757 72.2571H175.023V13.3177C175.023 5.96744 169.017 0 161.647 0Z" fill="black"/>
<path d="M161.646 2.00586H13.3749C7.1062 2.00586 2.01367 7.06386 2.01367 13.3178V58.9395C2.01367 65.181 7.1062 70.239 13.3749 70.239H173.008V13.3178C173.008 7.07632 167.928 2.01832 161.659 2.01832" fill="white"/>
<path d="M19.1055 37.6105C19.1055 37.4361 19.2556 37.2991 19.4183 37.2991H23.2596C23.4347 37.2991 23.5849 37.4486 23.5849 37.6105V46.1817C23.5849 47.7764 24.3481 48.7481 26.0999 48.7481C27.8516 48.7481 28.5898 47.7639 28.5898 46.1817V37.6105C28.5898 37.4361 28.74 37.2991 28.9026 37.2991H32.7439C32.9191 37.2991 33.0693 37.4486 33.0693 37.6105V45.9325C33.0693 49.67 31.1924 52.3609 26.0999 52.3609C21.0073 52.3609 19.118 49.67 19.118 45.9325V37.6105H19.1055ZM35.1838 51.8252V41.2234C35.1838 41.049 35.334 40.9119 35.5092 40.9119H39.1252C39.3004 40.9119 39.4506 41.0614 39.4506 41.2234V43.1544C39.9636 41.6345 41.6653 40.7001 43.4795 40.7001C45.6066 40.7001 46.9455 41.7964 46.9455 44.7366V51.8377C46.9455 52.0121 46.7953 52.1616 46.6201 52.1616H43.0041C42.8289 52.1616 42.6788 52.0121 42.6788 51.8377V45.5588C42.6788 44.5372 42.3409 43.9268 41.1022 43.9268C39.8635 43.9268 39.4381 44.1635 39.4381 44.5372V51.8377C39.4381 52.0121 39.2879 52.1616 39.1127 52.1616H35.4967C35.3215 52.1616 35.1713 52.0121 35.1713 51.8377M51.062 36.4395C52.9139 36.4395 53.4269 36.6139 53.4269 38.1213C53.4269 39.6287 52.9139 39.8156 51.062 39.8156C49.2102 39.8156 48.6722 39.6661 48.6722 38.1213C48.6722 36.5765 49.1977 36.4395 51.062 36.4395ZM48.9474 41.2358C48.9474 41.0614 49.0976 40.9244 49.2603 40.9244H52.8888C53.064 40.9244 53.2142 41.0739 53.2142 41.2358V51.8377C53.2142 52.0121 53.064 52.1616 52.8888 52.1616H49.2603C49.0851 52.1616 48.9474 52.0121 48.9474 51.8377V41.2358ZM55.3413 41.2358C55.3413 41.0614 55.4914 40.9244 55.6666 40.9244H59.2952C59.4578 40.9244 59.608 41.0739 59.608 41.2358V43.1668C60.121 41.647 61.7976 40.7126 63.4868 40.7126C65.176 40.7126 66.3021 41.4102 66.7275 43.0423C67.3031 41.5847 69.0048 40.7126 70.6939 40.7126C72.8085 40.7126 74.1849 41.8089 74.1849 44.5248V51.8377C74.1849 52.0121 74.0347 52.1616 73.8595 52.1616H70.2435C70.0683 52.1616 69.9182 52.0121 69.9182 51.8377V45.5588C69.9182 44.5372 69.5803 43.9268 68.4542 43.9268C67.3281 43.9268 66.9027 44.1635 66.9027 44.5372V51.8377C66.9027 52.0121 66.7525 52.1616 66.5899 52.1616H62.9738C62.7986 52.1616 62.6485 52.0121 62.6485 51.8377V45.5588C62.6485 44.5372 62.3106 43.9268 61.1845 43.9268C60.0584 43.9268 59.633 44.1635 59.633 44.5372V51.8377C59.633 52.0121 59.4828 52.1616 59.3202 52.1616H55.6916C55.5164 52.1616 55.3663 52.0121 55.3663 51.8377V41.2358H55.3413ZM81.9676 40.7126C85.909 40.7126 87.6357 42.8803 87.6357 46.2315C87.6357 46.9541 87.6607 47.6518 86.8098 47.6518H80.2283C80.4411 48.9848 81.2043 49.4707 83.7443 49.4707H86.985C87.1977 49.4707 87.3729 49.6575 87.3228 49.8693L86.985 51.5885C86.96 51.6882 86.9224 51.763 86.8599 51.7754C85.8339 52.199 84.3199 52.3734 82.5556 52.3734C77.9136 52.3734 75.824 50.1434 75.824 46.4932C75.824 42.8429 77.851 40.7001 81.9801 40.7001M83.7318 45.5588C83.7318 44.2507 83.3439 43.416 82.0551 43.416C80.9666 43.416 80.3535 43.9268 80.2033 45.5588H83.7443H83.7318ZM93.2287 40.7001C94.9554 40.7001 96.1316 41.5348 96.8072 42.9052V37.4112C96.8072 37.2368 96.9574 37.0873 97.12 37.0873H100.749C100.924 37.0873 101.061 37.2368 101.061 37.4112V51.8377C101.061 52.0121 100.911 52.1616 100.749 52.1616H97.12C96.9449 52.1616 96.8072 52.0121 96.8072 51.8377V50.1559C96.119 51.5387 94.9554 52.3609 93.2287 52.3609C90.2883 52.3609 89.1371 49.9441 89.1371 46.5305C89.1371 43.117 90.2883 40.7001 93.2287 40.7001M95.3808 49.2838C96.3818 49.2838 96.8072 48.8353 96.8072 48.2622V44.6494C96.8072 44.0514 96.2567 43.7524 95.3808 43.7524C94.1296 43.7524 93.6166 44.6244 93.6166 46.5181C93.6166 48.4117 94.1296 49.2713 95.3808 49.2713" fill="black"/>
<path d="M156.254 39.9786L140.877 19.6095C140.726 19.4227 140.501 19.3105 140.263 19.3105H121.708C121.47 19.3105 121.245 19.4227 121.095 19.6095L105.717 39.9786C105.341 40.4769 105.704 41.187 106.317 41.187H114.275C114.901 41.187 115.264 41.8971 114.888 42.3955L108.482 50.9293C108.107 51.4276 108.457 52.1377 109.095 52.1377H120.944C121.182 52.1377 121.407 52.0256 121.557 51.8387L128.652 42.3955C129.027 41.8971 128.677 41.187 128.039 41.187H125.561H124.36C123.685 41.187 123.297 40.4146 123.697 39.8665L129.991 31.5818C130.404 31.0336 130.016 30.2612 129.328 30.2612H124.348C123.672 30.2612 123.284 29.4888 123.685 28.9407L130.316 20.1951C130.654 19.759 131.305 19.759 131.642 20.1951L138.211 28.9407C138.624 29.4888 138.236 30.2612 137.548 30.2612H132.631C131.955 30.2612 131.555 31.0336 131.968 31.5818L138.211 39.8789C138.624 40.4271 138.236 41.1995 137.548 41.1995H136.36H133.932C133.307 41.1995 132.944 41.9096 133.332 42.4079L140.426 51.8512C140.576 52.0381 140.802 52.1502 141.039 52.1502H152.888C153.514 52.1502 153.864 51.4401 153.489 50.9417L147.083 42.4079C146.707 41.9096 147.07 41.1995 147.696 41.1995H155.654C156.279 41.1995 156.642 40.4894 156.267 39.991" fill="black"/>
<path d="M28.1777 19.5719L27.5896 22.0759C26.526 21.8019 25.4625 21.615 24.4865 21.615C23.0601 21.615 22.2718 22.0884 22.2718 22.8359C22.2718 23.5834 23.0226 23.8699 24.0361 24.2063C26.2382 24.9911 28.503 25.6265 28.503 28.2925C28.503 30.7343 26.6136 32.2667 23.4605 32.2667C22.0716 32.2667 20.3449 31.9179 19.1562 31.4445L19.8569 28.9279C20.9705 29.3889 22.4345 29.638 23.3729 29.638C24.6742 29.638 25.3374 29.1397 25.3374 28.4545C25.3374 27.5824 24.3614 27.408 22.8099 26.8723C20.6702 26.1248 19.2563 25.1905 19.2563 23.0601C19.2563 20.7305 21.1082 18.9863 24.499 18.9863C25.6877 18.9863 27.0515 19.1981 28.1777 19.5719V19.5719Z" fill="black"/>
<path d="M33.6088 21.8767V24.306H37.9881V26.9347H33.6088V29.4014H39.1768V32.0301H30.6309V19.248H39.1768V21.8767H33.6088V21.8767Z" fill="black"/>
<path d="M51.9515 24.9911V31.3946C50.5251 31.9428 48.8735 32.2667 47.3344 32.2667C43.1928 32.2667 40.5527 29.9869 40.5527 25.938C40.5527 21.8891 43.343 18.9863 47.7348 18.9863C49.0862 18.9863 50.3249 19.1483 51.6387 19.5719L50.9755 22.1507C49.8619 21.8642 49.0111 21.6897 48.1227 21.6897C45.2949 21.6897 43.5807 23.2221 43.5807 25.8881C43.5807 28.3673 45.1197 29.6505 47.5221 29.6505C48.1102 29.6505 48.6232 29.5882 49.1737 29.4885V27.6323H47.1342V25.0036H51.9515V24.9911Z" fill="black"/>
<path d="M64.8266 27.1839C64.8266 30.3233 62.9623 32.2792 59.4963 32.2792C56.0304 32.2792 54.1035 30.3233 54.1035 27.1839V19.248H57.0564V26.9098C57.0564 28.5169 57.9573 29.6506 59.4713 29.6506C60.9853 29.6506 61.8737 28.5169 61.8737 26.9098V19.248H64.8266V27.1839Z" fill="black"/>
<path d="M77.3755 31.7809V32.0176H74.1098L71.9076 27.7694H70.3561V32.0176H67.3281V19.248H72.771C75.4111 19.248 77.1128 20.8302 77.1128 23.3717C77.1128 25.1657 76.2745 26.4862 74.8981 27.2088L77.3755 31.7934V31.7809ZM70.3561 25.1407H72.1579C73.309 25.1407 74.0473 24.5428 74.0473 23.4838C74.0473 22.4249 73.3841 21.8393 72.2079 21.8393H70.3561V25.1407Z" fill="black"/>
<path d="M78.6406 25.6888C78.6406 21.6524 81.1681 18.9863 85.0344 18.9863C88.9008 18.9863 91.2281 21.4281 91.2281 25.5518C91.2281 29.6754 88.7006 32.2667 84.8342 32.2667C80.9679 32.2667 78.6406 29.7875 78.6406 25.6763V25.6888ZM88.2126 25.6141C88.2126 23.1723 86.9113 21.615 84.9093 21.615C82.9073 21.615 81.6686 23.1723 81.6686 25.6265C81.6686 28.0808 82.9449 29.638 84.9093 29.638C86.8738 29.638 88.2126 28.0683 88.2126 25.6016V25.6141Z" fill="black"/>
<path d="M101.812 19.5719L101.224 22.0759C100.161 21.8019 99.0972 21.615 98.1213 21.615C96.6949 21.615 95.9066 22.0884 95.9066 22.8359C95.9066 23.5834 96.6573 23.8699 97.6708 24.2063C99.873 24.9911 102.138 25.6265 102.138 28.2925C102.138 30.7343 100.248 32.2667 97.0953 32.2667C95.7064 32.2667 93.9797 31.9179 92.791 31.4445L93.4917 28.9279C94.6053 29.3889 96.0692 29.638 97.0077 29.638C98.309 29.638 98.9721 29.1397 98.9721 28.4545C98.9721 27.5824 97.9962 27.408 96.4446 26.8723C94.305 26.1248 92.8911 25.1905 92.8911 23.0601C92.8911 20.7305 94.7429 18.9863 98.1338 18.9863C99.3225 18.9863 100.686 19.1981 101.812 19.5719V19.5719Z" fill="black"/>
</svg>
