<svg width="224" height="72" viewBox="0 0 224 72" fill="none" xmlns="http://www.w3.org/2000/svg">
<path fill-rule="evenodd" clip-rule="evenodd" d="M58.1909 0.391452C58.0026 0.606639 57.7774 1.18554 57.6905 1.67765C57.2658 4.08094 55.7933 5.9485 53.4301 7.08081C52.5712 7.49239 51.6343 7.82904 51.348 7.82904C50.7049 7.82904 49.7278 8.76718 49.7278 9.38478C49.7278 9.96592 50.4894 10.737 51.0633 10.737C52.0424 10.737 54.0071 11.6941 54.9942 12.6522C55.9794 13.6084 57.5678 16.4419 57.5678 17.2433C57.5678 17.8605 58.4526 18.7897 59.0401 18.7897C59.6951 18.7897 60.4798 18.0627 60.4798 17.4561C60.4798 16.5783 61.4112 14.5625 62.2632 13.5957C63.153 12.5864 65.029 11.4579 66.6397 10.9629C67.6959 10.6383 68.0957 10.2035 68.0957 9.37941C68.0957 8.59919 67.7526 8.33748 66.1998 7.9335C63.624 7.26356 61.6493 5.1562 60.8276 2.20018C60.3628 0.528572 59.9565 0 59.1358 0C58.8042 0 58.3791 0.176265 58.1909 0.391452ZM172.525 0.378478C172.41 0.600823 172.25 1.21909 172.168 1.75214C171.959 3.1211 171.111 4.65716 169.978 5.72034C168.633 6.98216 167.959 7.36332 165.881 8.03326C164.382 8.5171 164.067 8.70097 164.006 9.12888C163.902 9.85967 164.3 10.231 165.38 10.4113C168.406 10.9159 170.689 13.1841 172.012 17.0002C172.522 18.4716 172.666 18.6863 173.187 18.7465C173.881 18.827 174.495 18.1157 174.496 17.2299C174.496 16.1502 175.716 14.0263 177.018 12.8376C178.148 11.8064 178.902 11.4042 181.831 10.2706C182.391 10.0538 182.527 9.15192 182.055 8.78351C181.901 8.66317 181.283 8.44462 180.681 8.29789C177.566 7.53847 175.711 5.3989 174.455 1.11843C174.192 0.225253 174.079 0.104014 173.446 0.0429479C172.937 -0.00648692 172.674 0.0894747 172.525 0.378478ZM59.244 22.8892C55.4228 24.5098 52.1721 25.9172 52.02 26.0168C51.4389 26.3975 51.787 27.0753 53.2072 28.3281L54.6708 29.6193L54.6072 41.4105L54.5438 53.2017L53.9838 53.8007C53.4171 54.4065 51.9752 55.2506 51.5066 55.2506C50.8789 55.2506 49.7457 56.0098 49.5043 56.5916C49.2948 57.0965 49.3022 57.3614 49.5396 57.8557C50.1095 59.0428 50.1453 59.0464 61.219 59.05C72.4877 59.0535 72.6196 59.039 72.9023 57.7539C73.2083 56.3624 72.4386 55.5918 70.1778 55.0267C68.8419 54.693 67.9754 53.8855 67.6751 52.6941C67.5012 52.0045 67.4237 46.8818 67.4237 36.0711C67.4237 19.9081 67.4222 19.8813 66.5389 19.9254C66.3479 19.935 63.0654 21.2688 59.244 22.8892ZM123.088 22.8964C116.591 25.4072 115.461 25.9103 115.403 26.3194C115.35 26.6858 115.789 27.1782 117.264 28.4084L119.194 30.0179L119.125 41.3481C119.046 54.238 119.09 53.9206 117.284 54.7934C116.764 55.0448 116.176 55.2506 115.978 55.2506C115.78 55.2506 115.308 55.5112 114.929 55.8298C114.067 56.5536 113.963 57.8394 114.711 58.5154C115.16 58.9216 115.67 58.9415 125.595 58.9415H136.007L136.435 58.4134C137.397 57.2278 136.794 55.9293 135.015 55.3529C133.322 54.8042 132.463 54.2215 132.137 53.3992C131.747 52.4161 131.573 38.0341 131.924 35.7382C132.505 31.9338 134.732 29.4936 137.925 29.1632C139.625 28.9871 140.939 29.3652 142.021 30.3413C143.616 31.7801 143.872 32.6585 145.612 42.6392C146.489 47.6663 147.222 52.2011 147.242 52.7165C147.29 53.9622 146.647 54.7997 145.24 55.3231C144.637 55.5475 143.967 55.8902 143.751 56.0848C143.232 56.5529 143.251 57.7517 143.788 58.4134L144.216 58.9415H165.044C185.212 58.9415 185.887 58.9281 186.344 58.5154C187 57.9221 186.983 56.6024 186.311 55.9808C186.034 55.7242 185.354 55.3943 184.801 55.2473C183.076 54.7901 182.109 54.1761 181.702 53.2802C181.365 52.5373 181.32 50.8337 181.257 36.3037C181.189 20.7633 181.17 20.1477 180.768 20.0202C180.293 19.8697 166.023 25.7508 165.725 26.2194C165.413 26.7107 165.493 26.8337 167.103 28.3429L168.671 29.8119L168.666 40.6857C168.663 47.3523 168.571 51.9492 168.429 52.5664C168.028 54.3078 166.508 55.4743 164.639 55.4743C162.879 55.4743 161.475 54.4498 160.702 52.6015C160.516 52.1586 159.365 46.9112 158.144 40.941C155.674 28.8692 155.521 28.2606 154.398 26.1154C152.341 22.1844 149.282 20.3367 144.815 20.3284C140.445 20.3202 137.279 21.7714 134.315 25.1428C133.602 25.9546 132.845 26.6187 132.633 26.6187C131.837 26.6187 131.711 26.1582 131.711 23.2265C131.711 20.6324 131.672 20.3501 131.278 20.1396C131.04 20.0124 130.813 19.9182 130.774 19.9305C130.735 19.9428 127.276 21.2775 123.088 22.8964ZM9.75561 22.9344C5.8195 24.4649 2.45749 25.8582 2.28457 26.0311C1.7799 26.5348 2.14457 27.0858 3.93141 28.5201L5.60334 29.8622L5.54577 47.7571C5.47947 68.2744 5.65844 66.6173 3.40098 67.6288C2.67007 67.9565 1.91586 68.2245 1.72524 68.2245C1.53439 68.2245 1.06825 68.4851 0.689245 68.8036C0.167551 69.2418 0 69.5684 0 70.1457C0 71.1436 0.613086 71.7348 1.83186 71.9122C2.36431 71.9896 7.29005 72.022 12.7783 71.9842C21.8834 71.9214 22.8094 71.8806 23.3622 71.5187C23.8447 71.2029 23.9679 70.949 23.9679 70.2714C23.9679 69.1416 23.3521 68.5891 21.4322 67.997C20.5983 67.7397 19.5928 67.2411 19.1978 66.8888L18.4799 66.2487L18.4138 60.0785C18.3773 56.6851 18.3964 53.9085 18.4562 53.9085C18.5158 53.9085 19.5032 54.8435 20.6503 55.9861C21.8014 57.1327 23.2554 58.3377 23.8951 58.6753C25.6515 59.6018 28.1963 60.1718 30.5759 60.1718C37.7703 60.1718 43.3794 55.7428 45.7695 48.1743C47.4862 42.7385 47.0503 35.3698 44.7134 30.3187C43.2061 27.0607 40.5302 23.9495 37.8373 22.3233C33.4424 19.6697 27.6462 19.6026 23.4193 22.1569C22.1974 22.8952 19.903 25.0896 18.8708 26.5069L18.382 27.1779L18.3751 23.9233C18.3677 20.5166 18.2629 20.1222 17.3711 20.1419C17.1185 20.1475 13.6915 21.4041 9.75561 22.9344ZM93.4509 20.5801C89.0475 21.1986 84.8661 23.4719 81.3675 27.1498C76.7441 32.0105 75.0957 37.2137 76.0056 44.0761C76.5569 48.2352 77.5418 50.5552 80.1041 53.7302C82.0601 56.1541 85.7498 58.4538 88.8732 59.1956C91.0597 59.7148 97.2331 59.7197 99.3436 59.2039C102.903 58.3339 107.914 55.1182 110.448 52.0774C111.731 50.5385 111.87 49.7323 111.002 48.8655C110.243 48.1074 109.293 48.1537 108.047 49.0098C104.055 51.7524 99.8277 52.3628 96.4323 50.6872C93.5564 49.2679 91.3632 46.169 90.2427 41.9413C89.551 39.3315 89.5495 35.2134 90.2396 32.7701C90.803 30.7751 91.9257 28.5731 93.1346 27.0921C94.0478 25.9729 95.7242 24.8292 96.4511 24.8292C96.8055 24.8292 98.177 26.1736 101.357 29.6385C105.026 33.636 105.873 34.4478 106.379 34.4478C107.648 34.4478 107.754 34.1892 108.555 29.1703C109.383 23.9806 109.441 23.2019 109.028 22.8595C108.468 22.3955 105.253 21.4619 102.736 21.0322C99.6881 20.5119 95.418 20.3041 93.4509 20.5801ZM205.942 20.5754C200.729 21.3127 196.008 24.2096 192.157 29.0337C190.504 31.1048 189.473 33.2692 188.739 36.2144C187.684 40.4479 188.194 46.0936 189.968 49.805C190.909 51.7743 193.132 54.6532 194.634 55.8483C196.299 57.1726 199.455 58.7525 201.323 59.196C203.556 59.7264 209.705 59.7257 211.791 59.1949C215.453 58.2635 220.364 55.1155 222.896 52.0774C224.178 50.5385 224.317 49.7323 223.449 48.8655C222.633 48.0499 221.855 48.1672 219.767 49.4205C217.054 51.0489 215.387 51.5596 212.788 51.5598C210.766 51.5598 210.554 51.5135 208.944 50.719C206 49.2657 203.821 46.2083 202.69 41.9413C201.999 39.3315 201.997 35.2134 202.687 32.7701C203.251 30.7751 204.373 28.5731 205.582 27.0921C206.495 25.9729 208.172 24.8292 208.899 24.8292C209.253 24.8292 210.625 26.1736 213.804 29.6385C217.474 33.636 218.321 34.4478 218.826 34.4478C220.08 34.4478 220.185 34.1928 220.992 29.1768C221.977 23.0554 221.979 23.1608 220.879 22.6006C218.015 21.1413 209.809 20.0287 205.942 20.5754ZM25.7489 26.2385C22.6109 27.1263 19.7905 30.7247 18.9642 34.8951C18.4219 37.6315 18.0756 41.8393 18.1869 44.3394C18.2765 46.3513 18.3865 46.8805 18.9765 48.1392C19.8672 50.0401 21.0151 51.2851 22.5878 52.0564C23.6892 52.5966 24.1209 52.6782 25.8719 52.6782C28.3816 52.6782 29.55 52.1738 31.4114 50.2864C32.8882 48.789 34.4479 45.805 35.0498 43.3255C35.8394 40.073 35.8905 35.1141 35.162 32.4133C34.4925 29.9302 32.7794 27.688 30.8207 26.731C29.4057 26.0396 27.2065 25.826 25.7489 26.2385Z" fill="black"/>
</svg>
